<?xml version="1.0" standalone="no"?>
<!DOCTYPE svg PUBLIC "-//W3C//DTD SVG 20010904//EN"
 "http://www.w3.org/TR/2001/REC-SVG-20010904/DTD/svg10.dtd">
<svg version="1.0" xmlns="http://www.w3.org/2000/svg"
 width="500.000000pt" height="500.000000pt" viewBox="0 0 500.000000 500.000000"
 preserveAspectRatio="xMidYMid meet">

<g transform="translate(0.000000,500.000000) scale(0.100000,-0.100000)"
fill="#000000" stroke="none">
<path d="M2312 4489 c-312 -28 -596 -159 -827 -381 -165 -158 -281 -340 -349
-549 l-34 -104 -70 -7 c-197 -20 -357 -158 -406 -350 -13 -50 -14 -51 -73 -73
-308 -111 -491 -456 -462 -870 19 -267 150 -511 344 -639 l40 -26 1 -133 c1
-108 5 -145 23 -202 36 -112 80 -184 161 -266 200 -203 489 -235 721 -80 l63
42 53 -60 c73 -82 152 -121 242 -121 91 0 136 15 180 59 71 71 76 178 15 290
-13 24 -23 45 -21 47 4 4 390 44 423 44 19 0 23 -7 28 -53 32 -251 323 -422
528 -310 55 30 90 74 109 140 14 49 0 142 -32 207 -10 22 -17 41 -16 43 6 6
232 -119 292 -162 l61 -43 58 -148 c61 -154 79 -184 112 -186 11 -1 145 48
299 109 154 62 320 121 369 133 294 72 527 260 661 535 92 186 126 376 105
570 -25 241 -116 444 -274 613 -55 59 -197 174 -227 184 -10 3 -9 19 4 69 64
257 -3 534 -178 739 -140 163 -355 279 -567 304 -54 7 -58 9 -99 64 -225 302
-517 487 -869 551 -129 24 -266 31 -388 20z m312 -374 c108 -8 295 -49 419
-91 187 -64 452 -208 485 -263 7 -11 19 -21 28 -21 9 0 51 -29 94 -65 52 -43
120 -86 197 -124 200 -99 418 -272 442 -350 38 -128 32 -302 -15 -433 -30 -81
-31 -78 51 -120 163 -83 311 -247 393 -434 109 -250 99 -550 -25 -799 -46 -90
-121 -192 -186 -251 -67 -60 -179 -136 -188 -126 -3 4 -27 58 -53 121 l-46
114 -10 196 c-14 285 -27 348 -131 609 -38 97 -81 191 -95 209 -26 34 -77 65
-126 77 -39 9 -117 -11 -156 -40 l-32 -25 -30 24 c-44 38 -114 51 -173 33
l-48 -14 7 36 c10 66 44 185 69 250 14 34 25 70 25 80 0 28 87 200 135 267 24
33 59 75 78 93 33 32 37 33 74 23 21 -6 69 -29 105 -51 75 -45 84 -47 116 -24
29 20 29 66 0 95 -65 62 -176 109 -259 110 -58 1 -63 -1 -101 -37 -64 -61
-156 -191 -205 -287 -26 -53 -49 -87 -56 -84 -7 3 -97 37 -202 77 -104 40
-192 75 -194 77 -9 7 59 134 101 191 51 69 70 90 127 137 51 42 61 42 195 -2
l78 -25 27 19 c34 26 39 65 11 91 -29 27 -152 63 -237 69 -70 5 -73 5 -121
-31 -106 -77 -206 -202 -278 -347 l-37 -77 -85 -7 -84 -7 -57 55 c-54 52 -69
60 -418 206 -233 97 -374 151 -397 151 -49 0 -163 -25 -227 -50 -134 -53 -264
-171 -352 -318 l-48 -81 -57 -6 c-261 -27 -449 -134 -574 -324 -26 -40 -48
-77 -48 -82 0 -10 106 -134 155 -182 l35 -34 -16 -39 c-10 -23 -14 -54 -11
-80 4 -40 21 -67 207 -334 81 -117 249 -373 335 -513 43 -70 86 -129 94 -131
9 -2 34 -7 56 -11 22 -4 34 -10 27 -12 -10 -4 -9 -8 3 -17 20 -14 21 -62 3
-141 -13 -56 -18 -63 -75 -107 -246 -186 -571 -96 -703 195 -53 116 -62 250
-26 383 l13 50 -76 36 c-212 100 -341 349 -341 655 1 357 199 649 460 680 l65
8 6 80 c8 127 72 223 186 281 54 27 66 29 166 29 100 0 108 1 112 20 33 155
73 269 133 380 45 82 98 123 277 210 318 154 620 208 1009 180z m-786 -957
c48 -125 72 -227 72 -306 0 -60 -16 -92 -40 -77 -6 4 -9 1 -8 -5 7 -30 -257
-160 -325 -160 -13 0 -38 17 -62 44 -50 55 -73 63 -108 35 -34 -26 -34 -54 -1
-113 25 -45 25 -47 9 -73 -34 -51 -101 -117 -179 -175 -129 -96 -127 -95 -204
-57 -74 36 -170 114 -253 203 l-57 61 17 28 c32 57 138 147 213 182 74 35 197
65 268 65 29 0 41 -6 54 -25 12 -18 25 -25 50 -25 46 0 71 29 61 72 -13 62 -8
84 34 150 52 82 159 184 231 220 49 25 145 56 177 57 6 1 29 -45 51 -101z
m452 -114 c151 -36 279 -70 284 -75 12 -11 10 -11 -159 -44 -118 -22 -294 -62
-356 -81 -14 -4 -18 6 -24 58 -6 54 -23 140 -41 200 -4 12 -1 16 8 14 7 -3
137 -35 288 -72z m527 -240 c-8 -33 -18 -71 -21 -86 -5 -22 -12 -28 -34 -28
-64 0 -195 -91 -176 -122 4 -6 3 -8 -3 -5 -6 4 -15 -5 -22 -20 -10 -22 -9 -25
4 -20 8 4 15 3 15 -1 0 -8 -57 -32 -74 -32 -10 0 1 151 18 260 l11 75 145 21
c80 11 146 20 148 19 2 -2 -3 -29 -11 -61z m243 10 c49 -20 90 -39 89 -43 -5
-59 -49 -236 -57 -235 -7 1 -33 2 -59 3 -47 2 -49 3 -81 59 l-34 57 23 98 c12
53 24 97 26 97 1 0 43 -16 93 -36z m-664 -76 c-3 -35 -11 -105 -16 -157 -6
-52 -11 -96 -13 -97 -1 -2 -45 -10 -97 -18 -52 -9 -121 -22 -152 -30 -66 -15
-62 -19 -73 77 -6 52 -4 62 17 90 38 50 58 95 44 101 -6 2 -3 5 7 5 9 1 17 7
17 15 0 9 32 21 98 36 53 12 111 25 127 30 17 4 34 9 39 9 5 1 6 -26 2 -61z
m937 -29 c20 -7 37 -18 37 -24 0 -5 -12 -54 -27 -108 l-27 -98 -31 7 c-65 14
-65 13 -44 116 25 120 28 130 42 125 7 -2 29 -10 50 -18z m-1243 1 c0 -5 -5
-10 -11 -10 -5 0 -7 5 -4 10 3 6 8 10 11 10 2 0 4 -4 4 -10z m-48 -22 c-7 -7
-12 -8 -12 -2 0 14 12 26 19 19 2 -3 -1 -11 -7 -17z m25 -20 c-3 -8 -6 -5 -6
6 -1 11 2 17 5 13 3 -3 4 -12 1 -19z m-2 -38 c-3 -5 -12 -10 -18 -10 -7 0 -6
4 3 10 19 12 23 12 15 0z m-195 -39 c-5 -11 -19 -19 -29 -18 -11 0 -17 5 -15
9 3 5 9 6 14 3 4 -3 13 2 20 10 17 21 23 19 10 -4z m-65 -31 c-3 -5 -1 -10 5
-10 6 0 8 -4 5 -10 -3 -5 -11 -10 -16 -10 -6 0 -7 5 -3 11 4 8 -1 9 -17 5 -24
-7 -24 -7 1 8 30 18 33 19 25 6z m85 1 c0 -5 -7 -12 -16 -15 -14 -5 -15 -4 -4
9 14 17 20 19 20 6z m935 -15 c12 -8 77 -156 160 -363 125 -307 144 -350 169
-362 36 -17 72 -2 86 35 8 21 1 46 -41 150 -53 128 -56 155 -23 188 22 22 77
20 98 -3 10 -11 48 -95 86 -188 56 -137 73 -170 93 -177 35 -13 72 0 85 29 11
23 6 41 -38 151 -53 132 -61 181 -32 207 22 19 40 23 74 14 33 -9 39 -20 112
-201 68 -171 78 -186 116 -186 33 0 70 30 70 58 0 10 -20 68 -45 130 -50 125
-54 153 -25 182 25 25 81 26 103 2 14 -16 104 -219 144 -327 34 -93 54 -231
60 -416 l6 -187 -54 -20 c-30 -11 -182 -72 -338 -136 l-284 -115 -46 38 c-52
43 -122 85 -266 161 -163 85 -411 256 -522 359 -52 48 -43 117 18 136 29 10
225 -94 362 -191 26 -19 59 -34 74 -34 34 0 63 26 63 57 0 13 -85 228 -190
478 -104 250 -190 465 -190 478 0 53 70 86 115 53z m-912 -26 c2 -14 6 -32 10
-40 3 -8 7 -31 10 -50 l5 -36 -136 -43 c-76 -24 -144 -46 -153 -48 -13 -4 -21
8 -34 46 -19 59 -15 70 21 63 19 -3 25 -1 20 7 -4 6 -3 11 3 11 5 0 11 -6 14
-12 3 -10 7 -10 19 -1 8 7 18 10 21 7 3 -4 14 -3 24 1 10 5 20 9 23 9 3 1 25
8 49 16 41 13 43 15 20 22 -18 6 -16 7 12 4 20 -2 42 0 50 5 8 5 10 9 4 9 -5
0 -3 5 5 10 8 5 10 10 3 10 -6 0 -9 9 -6 20 7 25 10 23 16 -10z m-237 -41 c3
-5 -6 -5 -20 1 -19 7 -26 6 -26 -2 0 -6 -3 -9 -6 -5 -3 3 -3 10 0 15 7 11 43
4 52 -9z m199 11 c3 -6 -1 -7 -9 -4 -18 7 -21 14 -7 14 6 0 13 -4 16 -10z
m-80 -30 c-3 -5 -12 -10 -18 -10 -7 0 -6 4 3 10 19 12 23 12 15 0z m1284 -69
c0 -9 -4 -25 -8 -35 -7 -18 -9 -16 -19 14 -16 45 -15 49 8 43 11 -3 20 -13 19
-22z m-1619 -5 c0 -2 -8 -10 -17 -17 -16 -13 -17 -12 -4 4 13 16 21 21 21 13z
m1794 -21 c44 -19 48 -37 5 -25 -16 5 -37 6 -45 3 -9 -3 -14 2 -14 16 0 25 6
26 54 6z m-1794 -15 c-6 -11 -13 -20 -16 -20 -2 0 0 9 6 20 6 11 13 20 16 20
2 0 0 -9 -6 -20z m1100 1 c0 -11 5 -23 10 -26 6 -4 8 -15 5 -26 -4 -10 -2 -19
3 -19 8 0 15 -27 24 -87 1 -7 5 -13 9 -13 4 0 8 -8 7 -17 0 -10 2 -27 5 -38 3
-11 7 -26 9 -34 2 -12 -12 -16 -63 -18 -81 -5 -79 -10 -79 170 l0 127 35 0
c28 0 35 -4 35 -19z m30 15 c0 -3 -4 -8 -10 -11 -5 -3 -10 -1 -10 4 0 6 5 11
10 11 6 0 10 -2 10 -4z m-1170 -46 c-6 -10 -15 -22 -21 -25 -7 -5 -6 -11 2
-21 10 -12 9 -13 -7 -7 -17 6 -17 5 -6 -10 13 -15 17 -13 52 19 25 23 37 41
33 52 -4 10 -2 13 5 8 14 -9 44 -77 38 -84 -15 -14 -180 -81 -189 -75 -5 3
-13 0 -17 -7 -4 -7 -13 -9 -20 -5 -10 6 -9 11 5 21 11 8 23 10 29 5 7 -6 22
-1 40 14 24 19 27 25 17 44 -7 12 -17 19 -24 15 -7 -4 5 9 26 29 24 22 36 41
31 48 -4 8 -3 9 4 5 9 -5 9 -13 2 -26z m950 -113 l0 -143 -102 -12 c-137 -16
-135 -16 -141 16 -4 15 -16 71 -27 125 -12 55 -19 102 -15 105 9 9 213 50 253
51 l32 1 0 -143z m-934 75 c-8 -9 -18 -13 -22 -10 -8 9 19 37 29 31 5 -3 2
-12 -7 -21z m524 -17 c0 -3 12 -59 26 -126 14 -67 23 -123 21 -126 -7 -6 -238
-66 -241 -62 -6 9 -81 215 -81 224 0 5 59 28 130 51 137 45 145 47 145 39z
m-625 -15 c-3 -5 -2 -10 4 -10 10 0 9 -26 -2 -35 -4 -3 -5 -2 -2 1 2 4 0 14
-5 24 -5 10 -6 20 -3 24 10 9 15 7 8 -4z m1346 -67 c13 -16 12 -17 -3 -4 -16
12 -18 11 -18 -2 0 -9 -5 -19 -12 -23 -6 -4 -9 -3 -6 2 3 5 8 17 11 27 4 9 8
17 10 17 3 0 11 -8 18 -17z m-1 -26 c0 -2 -12 -14 -27 -28 l-28 -24 24 28 c23
25 31 32 31 24z m-1071 -138 c23 -62 40 -113 39 -114 -17 -12 -200 -75 -207
-71 -20 12 -113 188 -105 196 11 11 205 99 220 99 7 1 30 -49 53 -110z m1086
100 c11 -16 1 -19 -13 -3 -7 8 -8 14 -3 14 5 0 13 -5 16 -11z m-1570 -19 c-3
-5 0 -10 7 -10 10 0 9 -3 -2 -9 -8 -6 -18 -7 -22 -5 -4 3 -8 1 -8 -5 0 -6 -10
-15 -22 -21 -22 -11 -22 -10 -4 4 11 9 16 16 12 16 -5 0 2 9 15 20 27 22 33
24 24 10z m-184 -24 c7 4 9 3 6 -2 -3 -6 14 -19 39 -30 24 -10 44 -21 44 -24
0 -7 -60 -43 -64 -38 -19 23 -66 98 -66 104 0 3 7 1 15 -6 8 -6 20 -8 26 -4z
m327 -197 c28 -50 52 -94 52 -98 0 -9 -158 -87 -163 -80 -5 6 -102 151 -110
166 -5 7 22 28 75 57 46 25 85 46 88 46 3 0 29 -41 58 -91z m1427 51 c3 -11
11 -20 16 -20 6 0 8 4 4 9 -3 5 0 13 6 17 8 4 9 3 5 -4 -4 -7 -1 -12 6 -12 8
0 6 -5 -5 -11 -18 -10 -18 -11 0 -26 10 -8 11 -11 3 -7 -12 6 -13 5 -4 -7 16
-20 26 -69 15 -69 -5 0 -16 6 -23 13 -35 32 -61 51 -54 40 5 -9 2 -11 -8 -7
-9 3 -14 10 -11 15 7 10 -60 23 -74 14 -6 -3 -11 0 -11 7 -1 8 -6 6 -15 -6
-14 -18 -15 -18 -25 8 -23 62 -19 66 79 66 81 0 90 -2 96 -20z m-302 -41 c7
-57 0 -109 -15 -109 -6 0 -8 -13 -6 -29 2 -17 1 -28 -4 -25 -4 3 -8 -15 -8
-40 0 -32 5 -48 17 -54 13 -8 0 -12 -51 -17 -37 -4 -71 -4 -76 1 -8 9 -80 270
-80 290 0 12 100 30 176 33 l41 1 6 -51z m-309 -144 c21 -79 38 -148 38 -152
-1 -4 -36 -15 -79 -24 -43 -8 -88 -19 -99 -23 -20 -6 -25 1 -50 66 -15 40 -39
106 -55 145 l-27 73 41 11 c113 32 173 47 182 48 6 1 27 -64 49 -144z m-336
-92 c29 -76 48 -140 44 -144 -10 -8 -143 -52 -146 -47 -15 17 -137 250 -134
254 6 5 170 74 179 74 3 0 29 -62 57 -137z m657 107 c3 -5 1 -10 -4 -10 -6 0
-11 5 -11 10 0 6 2 10 4 10 3 0 8 -4 11 -10z m-946 -215 c39 -69 71 -127 71
-129 0 -8 -91 -37 -103 -33 -6 2 -21 -3 -32 -12 l-20 -16 20 24 20 24 -20 -7
c-16 -6 -18 -5 -7 5 9 10 15 10 24 1 26 -26 27 -10 1 18 -19 22 -32 29 -47 24
-15 -4 -17 -3 -7 4 11 8 9 17 -14 46 -27 36 -49 48 -39 22 3 -8 0 -17 -6 -21
-7 -4 -9 3 -6 21 4 22 -1 36 -22 58 -15 16 -22 30 -17 32 8 3 124 59 131 63 1
1 34 -55 73 -124z m-174 6 c3 -5 2 -12 -3 -15 -5 -3 -9 1 -9 9 0 17 3 19 12 6z
m42 -63 c-3 -8 -6 -5 -6 6 -1 11 2 17 5 13 3 -3 4 -12 1 -19z m1088 2 c4 -6
10 -8 15 -5 4 3 11 -6 14 -19 3 -13 17 -31 31 -40 25 -16 31 -39 19 -70 -3 -9
-11 -13 -17 -9 -5 3 -79 8 -164 9 -119 3 -152 1 -146 -9 5 -9 4 -9 -8 0 -10 8
-33 10 -68 6 -36 -4 -48 -9 -39 -15 8 -6 2 -7 -18 -3 -39 8 -165 -22 -181 -43
-8 -10 -13 -11 -13 -4 0 7 -5 12 -11 12 -5 0 -8 -4 -5 -9 6 -10 -24 -25 -32
-16 -3 3 1 5 8 5 7 0 11 2 8 5 -2 3 -30 -4 -61 -14 -56 -20 -161 -20 -181 -1
-5 5 -16 6 -25 3 -11 -4 -10 -1 4 10 30 22 302 112 440 146 66 16 170 36 230
45 61 9 121 17 135 20 47 7 59 6 65 -4z m83 -33 c13 -9 7 -27 -8 -27 -5 0 -14
9 -20 19 -10 20 2 24 28 8z m-1108 -20 c0 -2 -10 -12 -22 -23 l-23 -19 19 23
c18 21 26 27 26 19z m1176 -39 c4 -7 3 -8 -4 -4 -7 4 -12 0 -12 -10 0 -10 -3
-15 -6 -11 -7 6 2 37 10 37 3 0 8 -5 12 -12z m37 -33 c4 0 7 -3 7 -7 0 -5 -3
-7 -7 -7 -20 4 -33 12 -33 21 0 5 6 6 13 1 6 -4 15 -8 20 -8z m-83 -19 c0 -2
-7 -9 -15 -16 -13 -11 -14 -10 -9 4 5 14 24 23 24 12z m-435 -26 c3 -5 1 -10
-4 -10 -6 0 -11 5 -11 10 0 6 2 10 4 10 3 0 8 -4 11 -10z m339 -29 c-2 -3 -12
3 -22 13 -16 17 -16 18 5 5 12 -7 20 -15 17 -18z m-129 9 c14 -6 4 -7 -30 -5
-37 4 -44 2 -25 -4 29 -11 6 -14 -29 -4 -23 6 -23 7 -5 14 25 10 64 10 89 -1z
m-382 -7 c-7 -2 -19 -2 -25 0 -7 3 -2 5 12 5 14 0 19 -2 13 -5z m160 0 c-7 -2
-19 -2 -25 0 -7 3 -2 5 12 5 14 0 19 -2 13 -5z m54 1 c-3 -3 -12 -4 -19 -1 -8
3 -5 6 6 6 11 1 17 -2 13 -5z m-237 -18 c0 -2 -7 -7 -16 -10 -8 -3 -12 -2 -9
4 6 10 25 14 25 6z m247 -2 c-3 -3 -12 -4 -19 -1 -8 3 -5 6 6 6 11 1 17 -2 13
-5z m-590 -20 c-8 -8 -48 -13 -43 -6 2 4 14 8 26 9 12 1 20 0 17 -3z m19 -13
c-4 -5 -2 -11 4 -13 6 -2 1 -9 -10 -16 -12 -7 -20 -8 -20 -2 0 5 5 10 10 10 6
0 9 3 9 8 -2 12 1 22 7 22 3 0 3 -4 0 -9z m-122 -22 c-3 -5 -10 -7 -15 -3 -5
3 -7 10 -3 15 3 5 10 7 15 3 5 -3 7 -10 3 -15z m291 5 c-9 -9 -19 -13 -23 -10
-3 4 0 11 8 16 24 15 33 11 15 -6z m-245 2 c0 -2 -7 -7 -16 -10 -8 -3 -12 -2
-9 4 6 10 25 14 25 6z m130 0 c0 -2 -7 -7 -16 -10 -8 -3 -12 -2 -9 4 6 10 25
14 25 6z m183 -3 c-7 -2 -19 -2 -25 0 -7 3 -2 5 12 5 14 0 19 -2 13 -5z m-293
-13 c-8 -5 -19 -10 -25 -10 -5 0 -3 5 5 10 8 5 20 10 25 10 6 0 3 -5 -5 -10z
m177 4 c-3 -3 -12 -4 -19 -1 -8 3 -5 6 6 6 11 1 17 -2 13 -5z m160 0 c-3 -3
-12 -4 -19 -1 -8 3 -5 6 6 6 11 1 17 -2 13 -5z m869 -19 c98 -49 174 -152 174
-237 0 -55 -17 -87 -60 -116 -29 -20 -44 -23 -87 -20 -58 5 -170 57 -165 77 1
7 -2 10 -7 7 -12 -8 -60 49 -82 99 -70 153 68 269 227 190z m-1250 -26 c3 -6
0 -17 -8 -25 -13 -13 -15 -13 -15 0 0 8 4 13 9 10 4 -3 8 -1 8 5 0 5 -6 12
-12 14 -10 4 -10 6 -1 6 6 1 15 -4 19 -10z m904 -18 c0 -10 -59 -21 -117 -21
-22 0 -109 -12 -193 -26 -84 -14 -154 -23 -157 -21 -7 8 171 47 282 61 120 17
185 19 185 7z m1807 -136 c-16 -13 -50 -25 -57 -20 -6 3 -10 1 -10 -6 0 -8 -4
-8 -15 1 -13 11 -14 10 -9 -3 4 -12 -3 -17 -30 -23 -20 -3 -36 -10 -36 -15 0
-5 -6 -9 -12 -9 -7 0 -55 -18 -106 -40 -51 -22 -97 -38 -102 -35 -5 3 -14 -1
-22 -8 -19 -19 -119 -59 -146 -59 -12 0 -20 -3 -17 -6 3 -3 -16 -14 -42 -25
-45 -18 -48 -18 -60 0 -8 9 -11 23 -9 30 3 7 1 13 -4 13 -5 0 -17 17 -25 37
-12 29 -13 38 -3 44 7 5 121 52 253 105 132 53 276 111 320 129 l80 33 27 -71
c15 -39 27 -72 25 -72z m-2452 74 c109 -57 175 -173 142 -250 -24 -57 -51 -74
-116 -73 -63 0 -103 18 -162 71 -53 48 -79 101 -79 159 0 39 5 51 34 80 30 30
40 34 88 34 35 0 67 -7 93 -21z"/>
<path d="M1596 3010 c-83 -25 -98 -106 -33 -177 15 -17 24 -20 33 -12 17 14
33 4 44 -27 8 -21 16 -24 59 -24 40 0 54 5 81 30 26 24 31 35 28 67 -3 37 -3
37 -50 38 -56 1 -86 25 -97 76 -7 37 -20 42 -65 29z"/>
<path d="M1011 2687 c-73 -26 -90 -96 -37 -162 20 -25 26 -27 39 -16 23 18 60
10 72 -17 8 -20 15 -23 44 -18 44 7 72 35 73 72 2 52 -11 74 -41 74 -20 0 -38
12 -64 40 -39 44 -38 44 -86 27z"/>
<path d="M2480 1450 c0 -5 5 -10 11 -10 5 0 7 5 4 10 -3 6 -8 10 -11 10 -2 0
-4 -4 -4 -10z"/>
<path d="M2622 1084 c-30 -21 -29 -65 3 -102 66 -78 171 -34 129 54 -27 57
-88 79 -132 48z"/>
<path d="M3635 820 c-16 -7 -17 -9 -3 -9 9 -1 20 4 23 9 7 11 7 11 -20 0z"/>
<path d="M1641 991 c-28 -28 -26 -53 5 -90 19 -23 34 -31 59 -31 64 0 80 72
24 111 -41 29 -66 32 -88 10z"/>
</g>
</svg>
